PathFileType	4	(X/Y/Z)	 subject01_standing_10_70.trc
DataRate	CameraRate	NumFrames	NumMarkers	Units	OrigDataRate	OrigDataStartFrame	OrigNumFrames
2000	100	4	49	mm	2000	126	1000
Frame#	Time	s2			lmt5			lcal			ltoe			llmal			lsh1			lsh2			lsh3			lsh4			llfc			lth1			lth2			lth3			lth4			lgt			lic			lasi			lpsi			rpsi			ric			rasi			rgt			rth1			rth2			rth3			rth4			rlfc			rsh1			rsh2			rsh4			rlmal			rcal			rmt5			rtoe			jug			c7			lacr			lua			llel			lfa			ldr			racr			rua			rlel			rfa			rdr			B3			B2			B1			
		X1	Y1	Z1	X2	Y2	Z2	X3	Y3	Z3	X4	Y4	Z4	X5	Y5	Z5	X6	Y6	Z6	X7	Y7	Z7	X8	Y8	Z8	X9	Y9	Z9	X10	Y10	Z10	X11	Y11	Z11	X12	Y12	Z12	X13	Y13	Z13	X14	Y14	Z14	X15	Y15	Z15	X16	Y16	Z16	X17	Y17	Z17	X18	Y18	Z18	X19	Y19	Z19	X20	Y20	Z20	X21	Y21	Z21	X22	Y22	Z22	X23	Y23	Z23	X24	Y24	Z24	X25	Y25	Z25	X26	Y26	Z26	X27	Y27	Z27	X28	Y28	Z28	X29	Y29	Z29	X30	Y30	Z30	X31	Y31	Z31	X32	Y32	Z32	X33	Y33	Z33	X34	Y34	Z34	X35	Y35	Z35	X36	Y36	Z36	X37	Y37	Z37	X38	Y38	Z38	X39	Y39	Z39	X40	Y40	Z40	X41	Y41	Z41	X42	Y42	Z42	X43	Y43	Z43	X44	Y44	Z44	X45	Y45	Z45	X46	Y46	Z46	X47	Y47	Z47	X48	Y48	Z48	X49	Y49	Z49	
126	1.2600	305.131561	1252.892212	-197.716492	483.621246	320.437744	-405.501312	325.925049	436.794434	-335.497681	587.324280	289.154205	-335.741669	401.692841	426.466309	-380.959656	589.953918	691.518982	-385.493805	554.044495	612.147217	-380.153473	479.712616	557.743042	-381.831665	579.376343	591.984314	-355.668884	652.413208	781.208252	-361.837250	470.243774	1010.132019	-391.344727	538.166443	955.598999	-391.139313	575.431702	872.700134	-380.347260	568.557129	978.265076	-383.743500	390.602905	1137.166504	-385.222137	413.315918	1219.964478	-361.747803	488.273590	1180.285278	-305.851624	329.021729	1278.503296	-246.664886	336.248810	1282.174805	-144.726486	424.469391	1218.760010	-38.084702	483.787750	1174.352417	-92.730354	373.598389	1124.385864	-19.476789	426.424561	961.662048	-17.451962	463.977386	880.167419	-25.344090	459.627228	792.801025	-37.953121	498.561066	887.267334	-41.968433	456.664703	684.632141	-54.447277	373.011993	608.145386	-37.331841	318.141083	537.829651	-49.400230	337.183289	517.253235	-78.244232	138.251526	415.667755	-60.173874	73.761421	449.679291	-107.983665	153.873642	281.249878	-27.887699	235.863388	198.960968	-87.546036	828.823608	1335.299316	-219.546875	843.022156	1491.635132	-212.822556	872.855652	1478.603027	-343.818909	801.033020	1336.543091	-434.163086	734.587280	1189.526367	-466.032288	797.593262	1071.111328	-427.168671	823.645142	950.742371	-393.486877	873.742859	1455.990479	-74.776398	783.480835	1324.335815	16.538961	702.546265	1176.883301	37.754253	783.463013	1062.413208	8.643376	823.229309	952.045654	-30.384178	25.881163	23.347143	45.936985	19.595404	31.156818	-474.334930	-194.520752	888.021790	-210.667938	
127	1.2700	304.967926	1253.151245	-199.628464	483.842529	307.720703	-405.870453	324.455597	422.213837	-335.922241	587.936646	277.900513	-335.937317	400.290649	412.782532	-381.290222	582.967896	681.971069	-386.114288	548.844116	601.768066	-380.674591	475.722534	545.734375	-382.278168	574.420288	582.386230	-356.024475	643.873413	773.470703	-362.552948	467.602814	1007.914734	-392.615112	534.219666	951.828796	-392.064819	569.518372	868.028870	-381.524384	565.143860	973.767700	-384.247742	389.785675	1136.113037	-386.394867	413.381561	1218.742920	-363.323547	488.372284	1179.394653	-307.182831	329.291229	1278.319702	-248.798004	335.825256	1282.564819	-147.002396	423.625244	1219.935669	-39.721123	482.875977	1175.160400	-94.091820	373.885193	1125.933350	-21.147335	430.085297	963.439453	-18.260086	470.278564	883.107483	-25.845474	468.816833	795.684326	-38.575863	504.697510	891.294861	-42.528362	469.000824	687.667297	-54.921741	383.975342	613.452637	-37.981876	327.071899	544.657959	-49.941868	345.369934	523.605286	-78.733330	143.598785	427.761017	-60.167912	80.341919	464.005096	-108.151260	154.544662	292.956757	-28.059294	233.697006	207.998779	-87.496269	828.740906	1335.052979	-218.844193	842.933044	1491.388672	-212.087860	873.530945	1478.168457	-342.803162	801.661987	1336.386353	-433.672791	735.087036	1189.645142	-465.915833	797.795410	1071.077393	-427.022125	823.683228	950.698669	-393.425598	872.921570	1455.754761	-73.792824	782.441895	1324.125610	17.299520	701.715698	1176.504150	38.313374	782.957520	1062.276489	8.925889	823.146667	952.064270	-30.306517	25.883183	23.354706	45.928612	19.609602	31.181479	-474.331848	-194.475555	888.041870	-210.732193	
128	1.2800	304.686005	1252.831421	-201.631577	482.992584	294.995758	-405.981384	322.322876	407.255341	-336.105927	587.461914	266.575226	-335.821045	397.981110	399.223816	-381.631989	575.172180	672.066040	-386.709290	542.729675	591.191467	-381.277252	470.841461	533.618530	-382.866699	568.673767	572.297302	-356.618774	634.831482	765.041565	-363.499054	464.735992	1005.056519	-393.934326	530.158997	947.335449	-392.958252	563.116516	862.702881	-382.678833	561.453613	968.769958	-385.833862	389.082794	1134.441284	-387.387299	413.284851	1216.821411	-364.609283	488.509979	1177.855713	-308.435303	329.487885	1277.485474	-251.087677	335.375610	1282.454834	-149.346909	422.741028	1220.552490	-41.456383	481.981842	1175.410156	-95.241745	373.947083	1126.744629	-22.839252	433.680267	965.026794	-19.012020	476.623505	885.974915	-26.297562	478.087952	798.519897	-38.880264	510.752411	895.393555	-43.050076	481.389221	690.650391	-55.253616	395.066803	618.570007	-38.338665	336.281433	551.541565	-50.283104	353.948669	529.799805	-79.165604	149.790161	439.475830	-60.208187	87.540840	477.997437	-108.243362	156.113739	304.673920	-28.236870	232.261627	217.121323	-87.467728	828.636230	1334.625977	-218.018219	842.724121	1490.980713	-211.234589	874.135498	1477.557861	-341.693787	802.274292	1336.138184	-433.159454	735.405396	1189.684082	-465.983826	797.882935	1071.045898	-427.008118	823.671814	950.678406	-393.426056	871.915405	1455.537109	-72.882950	781.310364	1323.742676	17.824928	700.846558	1176.073120	38.731342	782.378479	1062.077271	9.262904	822.986145	952.082886	-30.264639	25.900433	23.354347	45.931820	19.607639	31.162577	-474.334747	-194.470444	888.023438	-210.774734	
129	1.2900	304.385498	1252.093384	-203.702545	481.299438	282.316803	-406.107178	319.247406	392.449768	-336.338898	586.144592	255.263306	-336.044922	394.802795	385.424438	-381.884399	566.588867	661.648804	-387.548737	535.787170	580.205200	-382.038635	464.910400	521.010925	-383.226746	561.971497	561.806702	-357.164917	625.306335	756.208252	-364.537628	461.931488	1001.853210	-395.368835	525.732239	942.301941	-393.923767	556.081909	856.786316	-383.952087	557.583130	962.720398	-386.458649	388.562958	1132.318237	-388.613464	413.522369	1214.773804	-366.198883	489.230591	1176.251587	-311.106537	329.627045	1276.343872	-253.468491	334.924103	1281.810059	-151.532974	421.879395	1220.534546	-43.109421	481.115997	1175.063599	-96.577377	373.763794	1126.696289	-24.188461	437.109924	966.467041	-19.822254	482.991516	889.119934	-26.639280	487.309143	801.504700	-39.052773	516.549133	899.342590	-43.569599	493.671112	693.770508	-55.431965	406.461823	623.587769	-38.634750	345.592957	558.255859	-50.922653	362.829590	535.968384	-79.552116	156.513184	450.953400	-60.142082	95.353516	491.640564	-108.318832	158.408829	316.291107	-28.453714	231.831543	226.302460	-87.458496	828.423401	1334.012695	-217.156296	842.382263	1490.407837	-210.338928	874.665405	1477.020630	-340.540039	802.768555	1335.815552	-432.660156	735.584290	1189.669556	-466.110443	797.873962	1071.013184	-427.046844	823.585022	950.623352	-393.447723	870.810303	1455.254639	-72.057167	780.001099	1323.366455	18.372593	699.702209	1175.476807	39.157749	781.684265	1061.925903	9.519885	822.807434	952.134338	-30.148050	25.894630	23.338446	45.923431	19.610106	31.152042	-474.323669	-194.465927	888.010437	-210.760574	
